<svg
      xmlns="http://www.w3.org/2000/svg"
      version="1.1"
      xmlns:xlink="http://www.w3.org/1999/xlink"
      xmlns:svgjs="http://svgjs.dev/svgjs"
      width="1000"
      height="1000"
      viewBox="0 0 1000 1000"
    >
      <rect width="1000" height="1000" fill="#ffffff"></rect>
      <g transform="matrix(0.7,0,0,0.7,149.57575757575756,358.4077521937677)">
        <svg
          viewBox="0 0 396 160"
          data-background-color="#ffffff"
          preserveAspectRatio="xMidYMid meet"
          height="404"
          width="1000"
          xmlns="http://www.w3.org/2000/svg"
          xmlns:xlink="http://www.w3.org/1999/xlink"
        >
          <g
            id="tight-bounds"
            transform="matrix(1,0,0,1,0.2400000000000091,0.10876820720358182)"
          >
            <svg
              viewBox="0 0 395.52 159.78246358559284"
              height="159.78246358559284"
              width="395.52"
            >
              <g>
                <svg
                  viewBox="0 0 395.52 159.78246358559284"
                  height="159.78246358559284"
                  width="395.52"
                >
                  <g transform="matrix(1,0,0,1,142.26154917037638,0)">
                    <svg
                      viewBox="0 0 110.99690165924724 110.99690165924724"
                      height="110.99690165924724"
                      width="110.99690165924724"
                    >
                      <g>
                        <svg
                          viewBox="0 0 110.99690165924724 110.99690165924724"
                          height="110.99690165924724"
                          width="110.99690165924724"
                        >
                          <g
                            transform="matrix(1,0,0,1,32.593071241059846,29.336230211640263)"
                          >
                            <svg
                              viewBox="0 0 45.81075917712756 52.32444123596672"
                              height="52.32444123596672"
                              width="45.81075917712756"
                            >
                              <g>
                                <svg
                                  xmlns="http://www.w3.org/2000/svg"
                                  xmlns:xlink="http://www.w3.org/1999/xlink"
                                  version="1.1"
                                  x="0"
                                  y="0"
                                  viewBox="11.43200000000001 5.946 77.13799999999998 88.10599999999998"
                                  enable-background="new 0 0 100 100"
                                  xml:space="preserve"
                                  height="52.32444123596672"
                                  width="45.81075917712756"
                                  class="icon-z$-0"
                                  data-fill-palette-color="accent"
                                  id="z$-0"
                                >
                                  <path
                                    fill-rule="evenodd"
                                    clip-rule="evenodd"
                                    d="M72.224 90.845l-1.333-1.155 0.089-1.599 0.533-4.797-0.444-3.998v-2.399l-0.267-3.376-0.444-2.665-1.066-3.465c-0.465-1.102-1.374-1.583-2.932-1.155l-3.765 2.025v22.703h-1.018V68.519l-3.578 0.702c0.066 0.589-0.006 1.15-0.379 1.767l1.409 0.986 0.986-0.211 0.916 1.409-0.282 0.634-2.677 0.141-4.016-1.057-1.621-1.973 0.846-1.339-6.201-0.211-5.285 7.821 0.141 0.846 0.634 1.832 1.198 1.902 1.691 1.762 1.057 0.775 0.141 0.564 1.902 1.973 1.268 1.762 0.986 1.127v0.705l1.127 1.057v0.634l-3.875-0.352-0.634-0.564 0.493-1.339-1.902-1.198-0.141-1.268-0.986-0.775-1.902-1.973-0.986-0.986-1.691-1.762-1.832-0.775L36.13 77.47l1.198-3.312-0.916-3.453-5.355 2.818-1.832 1.268c-2.339 3.631-3.182 7.245-2.626 10.796l0.584 2.773 0.876 1.362v0.876l1.751 2.384v0.827l-4.67 0.243-0.146-1.265 0.486-0.584-0.973-0.632-0.146-0.73 0.389-0.389 1.022-0.778-1.414-1.35c0.057-4.721-0.291-9.522-1.531-14.502-0.316-1.27-0.746-2.291 0.696-3.436 1.237-0.961 2.621-1.577 4.073-2.036-0.212-0.636-0.424-1.273-0.636-1.909-3.914-5.05-5.373-11.697-1.782-16.291-3.946-3.012-8.803-0.65-7.637 4.837l2.164 10.182c-0.848 8.911-4.03 10.82-8.273 9.546 2.914-3.676 2.112-11.068 0.268-19.501-0.891-7.351 4.645-12.273 14.827-7.575 4.327-4.052 9.258-4.275 14.603-1.879l3.16-17.251 3.879-4.344c-0.51-1.468-0.821-2.849-0.615-4.389 0.262-1.392 2.153-2.194 2.494-4.013 1.363 1.169 2.607 1.461 3.796 1.356l1.301 1.627-0.434 1.03 1.41 1.627-0.705-0.108v1.085c0 0.56 0.977 0.947 0 1.681l-1.193-0.054v0.976c1.841-0.084 2.857 1.138 3.308 3.254l1.464 0.271c0.336 1.066 0.857 0.896 1.247 0.217l-0.773 8.271 0.742 1.822 0.202 2.766h1.164V12.352c-2.551 1.37-5.93 1.119-9.164-0.329-3.129-1.401-6.071-0.032-8.853 0.922 1.437-1.744 3.481-3.451 6.64-3.965-2.306-0.523-4.611-0.184-6.917 1.014 2.178-1.748 3.308-4.414 9.683-2.49 2.99 1.353 6.298 1.506 8.549-0.092l0.03-1.466 1.077 0.014-0.028 34.762c2.68-7.562 6.592-12.626 12.826-12.151l3.553-0.178 0.622-2.043 0.888 2.31 1.51-3.465 0.8 4.619c1.363 0.56 1.933 1.541 2.252 2.342-0.267 0.089-0.653-0.032-0.919 0.057l0.533 0.711c1.493 1.21 1.02 1.928 0.267 2.576 1.16 2.355 1.771 4.654 2.132 6.929 0.385 0.622 0.77 1.244 1.155 1.866 0.968 1.724-1.571 2.559-2.132 1.066-0.148-0.415-0.296-0.829-0.444-1.244-0.455-0.821-1.499-0.492-1.155 0.355 0.178 0.385 0.355 0.77 0.533 1.155 0.49 1.127-1.938 2.274-2.697 0.653-0.584-0.819-0.929-1.717-1.034-2.696-1.3-0.705-2.805-1.711-3.705-3.376-0.581 2.349-1.124 4.536-2.424 6.485 0.676 1.155 0.237 2.31 0.355 3.465 1.976 4.028 2.458 7.416 2.399 10.571 1.51 0.385 3.02 0.77 4.531 1.155 0.563 0 1.125 0 1.688 0 1.007-0.254 2.014-0.145 3.086 0.394 0.858 0.93 0.726 1.751 1.089 2.626 0.089 1.244 0.178 2.487 0.267 3.731l-0.888 1.333-0.888 2.221-0.444 1.599-1.244 2.487-0.089 3.82-0.977 0.089-2.576-3.376 1.777-1.155-0.622-1.333 2.938-4.531 0.171-1.599c-0.365-0.993-0.934-1.679-1.954-1.688h-1.777l-5.064 0.8-1.954 7.729-0.089 4.531-0.444 1.155v1.421l-0.711 2.754L74 87.025l0.622 2.31-0.355 0.355 2.221 3.287-0.267 0.888-3.376-0.089-1.066-1.421L72.224 90.845 72.224 90.845z"
                                    fill="#000000"
                                    data-fill-palette-color="accent"
                                  ></path>
                                </svg>
                              </g>
                            </svg>
                          </g>
                          <g>
                            <path
                              d="M8.855 42.944l-6.308-2.4-0.359-2.059 1.136-2.986 1.633 0.621-1.065 2.799 4.964 1.889 1.044-2.743 1.689 0.642-1.115 2.93zM10.955 32.314l-0.713 1.875 0.989 0.377-1.04 2.734 1.689 0.642 1.111-2.92-0.337-2.062zM7.275 33.06l0.713-1.875-1.642-0.625-1.641 1.309-1.136 2.986 1.633 0.621 1.065-2.799z"
                              fill="#000000"
                              data-fill-palette-color="accent"
                            ></path>
                            <path
                              d="M8.851 24.797v0l3.033-3.902 1.434 1.115-1.838 2.365 1.379 1.072 1.839-2.364 1.418 1.103-1.838 2.364 2.766 2.151-1.194 1.537zM22.37 21.852v0l-2.901-2.255-1.48 0.683 0.337-1.572-2.112-1.642-1.959 0.779-1.948 2.506 1.434 1.116 1.875-2.412 1.38 1.072-1.876 2.412 1.419 1.103 1.875-2.412 2.767 2.151z"
                              fill="#000000"
                              data-fill-palette-color="accent"
                            ></path>
                            <path
                              d="M19.315 13.154v0l1.57-1.134 4.132 5.723 2.428-1.754 1.058 1.465-2.573 1.859-2.039 0.179zM27.927 6.935v0l-1.579 1.14 4.133 5.722-2.429 1.754 1.058 1.465 2.59-1.871 0.803-1.872z"
                              fill="#000000"
                              data-fill-palette-color="accent"
                            ></path>
                            <path
                              d="M34.763 8.59l-1.048-3.071 1.319-1.578 3.004-1.025 0.587 1.72-2.882 0.983 0.564 1.653 2.882-0.983 0.58 1.701-3.005 1.025zM45.948 8.477l-1.031-3.023-2.062-0.415-3.005 1.025 0.581 1.7 2.891-0.986 0.567 1.663-2.834 0.967 0.564 1.654 2.948-1.006zM35.327 10.244l1.843-0.629 0.341 1.002 2.825-0.964 0.565 1.654-2.958 1.009-2.049-0.409zM42.516 4.416l1.833-0.625-0.58-1.701-2.064-0.425-3.005 1.025 0.586 1.72 2.892-0.986z"
                              fill="#000000"
                              data-fill-palette-color="accent"
                            ></path>
                            <path
                              d="M49.355 1.4v0l1.715-1.134 3.173-0.12 0.066 1.746-2.993 0.113 0.068 1.816 2.993-0.114 0.067 1.756-2.993 0.113 0.134 3.542-1.936 0.073zM59.97 0.999v0l-1.866-0.999-3.173 0.12 0.066 1.746 3.053-0.116 0.069 1.816-3.053 0.115 0.066 1.756 3.053-0.115 0.134 3.542 1.945-0.074z"
                              fill="#000000"
                              data-fill-palette-color="accent"
                            ></path>
                            <path
                              d="M63.979 9.618l2.271-8.57 4.777 1.266-0.447 1.689-2.895-0.767-1.361 5.134 2.895 0.767-0.463 1.747zM74.516 11.326l1.729-6.524-1.406-1.477-3.088-0.819-0.448 1.689 2.896 0.767-1.361 5.134-2.895-0.767-0.463 1.747 3.088 0.818z"
                              fill="#000000"
                              data-fill-palette-color="accent"
                            ></path>
                            <path
                              d="M82.246 6.773v0l4.182 2.633-0.968 1.538-2.535-1.596-0.931 1.478 2.535 1.596-0.937 1.487-2.534-1.596-0.958 1.521 2.476 1.559-0.931 1.478-4.123-2.596zM83.268 15.829v0l-0.931 1.478 4.174 2.628 0.931-1.478zM90.267 13.971v0l0.968-1.538-4.224-2.66-0.969 1.538zM86.287 15.606v0l0.937-1.487-2.113-1.33-0.936 1.487z"
                              fill="#000000"
                              data-fill-palette-color="accent"
                            ></path>
                            <path
                              d="M95.208 16.405v0l3.261 3.713-1.365 1.199-1.977-2.25-1.312 1.153 1.976 2.25-1.35 1.186-1.976-2.25-2.633 2.312-1.285-1.462zM95.557 30.236v0l2.761-2.424-0.393-1.582 1.48 0.626 2.01-1.765-0.396-2.07-2.095-2.386-1.365 1.199 2.016 2.296-1.313 1.153-2.016-2.296-1.35 1.186 2.016 2.296-2.633 2.312z"
                              fill="#000000"
                              data-fill-palette-color="accent"
                            ></path>
                            <path
                              d="M101.098 31.262l2.962-1.326 1.693 1.167 1.297 2.898-1.658 0.742-1.244-2.779-1.595 0.714 1.244 2.779-1.64 0.735-1.297-2.898zM102.242 42.389l2.915-1.305 0.224-2.091-1.298-2.898-1.64 0.735 1.248 2.788-1.603 0.718-1.224-2.734-1.595 0.714 1.273 2.843zM99.504 31.976l0.795 1.777-0.965 0.432 1.22 2.725-1.595 0.714-1.277-2.852 0.218-2.078zM105.969 38.598l0.792 1.767 1.64-0.734 0.232-2.095-1.297-2.897-1.658 0.742 1.248 2.788z"
                              fill="#000000"
                              data-fill-palette-color="accent"
                            ></path>
                            <path
                              d="M4.46 71.721l6.307-2.4 1.638 1.3 1.136 2.985-1.633 0.622-1.065-2.8-4.964 1.889 1.044 2.743-1.689 0.643-1.115-2.93zM9.957 81.059l-0.714-1.876-0.989 0.377-1.04-2.734-1.689 0.642 1.111 2.921 1.622 1.316zM12.21 78.054l0.714 1.876 1.642-0.625 0.356-2.069-1.136-2.986-1.633 0.622 1.065 2.799z"
                              fill="#000000"
                              data-fill-palette-color="accent"
                            ></path>
                            <path
                              d="M17.481 81.486v0l3.033 3.902-1.435 1.115-1.838-2.365-1.379 1.073 1.838 2.364-1.419 1.103-1.838-2.364-2.766 2.151-1.195-1.537zM17.002 95.314v0l2.9-2.255-0.297-1.603 1.44 0.714 2.112-1.642-0.272-2.09-1.948-2.506-1.435 1.115 1.875 2.412-1.379 1.072-1.875-2.412-1.419 1.103 1.875 2.412-2.766 2.151z"
                              fill="#000000"
                              data-fill-palette-color="accent"
                            ></path>
                            <path
                              d="M25.715 90.976v0l1.57 1.134-4.133 5.722 2.429 1.754-1.058 1.465-2.574-1.859-0.811-1.879zM34.326 97.195v0l-1.578-1.14-4.132 5.723-2.428-1.754-1.058 1.465 2.59 1.87 2.03 0.173z"
                              fill="#000000"
                              data-fill-palette-color="accent"
                            ></path>
                            <path
                              d="M35.507 102.22l1.048-3.071 2.008-0.444 3.004 1.025-0.586 1.72-2.882-0.983-0.564 1.654 2.882 0.983-0.58 1.7-3.005-1.024zM44.43 108.966l1.031-3.024-1.378-1.588-3.005-1.025-0.58 1.701 2.891 0.986-0.567 1.663-2.835-0.967-0.564 1.654 2.949 1.006zM34.943 103.874l1.843 0.628-0.342 1.002 2.825 0.963-0.564 1.654-2.957-1.009-1.372-1.575zM44.195 103.654l1.833 0.625 0.58-1.7-1.374-1.598-3.005-1.025-0.587 1.72 2.892 0.986z"
                              fill="#000000"
                              data-fill-palette-color="accent"
                            ></path>
                            <path
                              d="M49.687 102.804v0l1.796-1.001 3.172 0.12-0.066 1.746-2.993-0.113-0.068 1.815 2.993 0.114-0.067 1.755-2.993-0.113-0.133 3.542-1.936-0.073zM60.302 103.205v0l-1.786-1.136-3.172-0.12-0.066 1.746 3.053 0.115-0.069 1.816-3.053-0.115-0.066 1.755 3.053 0.116-0.134 3.541 1.945 0.074z"
                              fill="#000000"
                              data-fill-palette-color="accent"
                            ></path>
                            <path
                              d="M65.721 109.947l-2.271-8.57 4.777-1.266 0.447 1.689-2.895 0.767 1.361 5.134 2.895-0.767 0.463 1.747zM75.72 106.213l-1.729-6.524-1.952-0.588-3.089 0.819 0.448 1.688 2.895-0.767 1.361 5.134-2.895 0.767 0.462 1.747 3.089-0.818z"
                              fill="#000000"
                              data-fill-palette-color="accent"
                            ></path>
                            <path
                              d="M76.421 96.969v0l4.182-2.633 0.968 1.538-2.535 1.595 0.931 1.479 2.535-1.596 0.936 1.487-2.534 1.596 0.957 1.521 2.475-1.559 0.931 1.478-4.122 2.596zM85.029 99.961v0l0.931 1.478 4.174-2.628-0.931-1.478zM86.378 92.847v0l-0.968-1.538-4.224 2.66 0.968 1.537zM86.133 97.142v0l-0.936-1.487-2.112 1.33 0.936 1.487z"
                              fill="#000000"
                              data-fill-palette-color="accent"
                            ></path>
                            <path
                              d="M86.994 89.374v0l3.262-3.713 1.365 1.199-1.977 2.25 1.313 1.153 1.977-2.25 1.35 1.186-1.977 2.25 2.633 2.313-1.285 1.462zM100.666 87.244v0l-2.761-2.425-1.518 0.593 0.431-1.548-2.011-1.766-2.001 0.66-2.095 2.385 1.365 1.199 2.016-2.295 1.312 1.153-2.016 2.295 1.35 1.186 2.017-2.295 2.632 2.313z"
                              fill="#000000"
                              data-fill-palette-color="accent"
                            ></path>
                            <path
                              d="M98.994 80.788l-2.961-1.326-0.257-2.04 1.297-2.897 1.659 0.742-1.245 2.779 1.595 0.714 1.244-2.779 1.64 0.735-1.297 2.897zM106.533 72.526l-2.915-1.306-1.709 1.226-1.297 2.897 1.64 0.735 1.248-2.788 1.604 0.718-1.224 2.733 1.595 0.714 1.273-2.843zM100.588 81.502l0.796-1.776 0.966 0.432 1.22-2.724 1.594 0.714-1.277 2.852-1.695 1.221zM101.222 72.27l0.792-1.768-1.64-0.735-1.718 1.222-1.297 2.898 1.658 0.742 1.249-2.788z"
                              fill="#000000"
                              data-fill-palette-color="accent"
                            ></path>
                            <path
                              d="M1.136 56.496c0-1.87 1.516-3.387 3.387-3.386 1.87 0 3.387 1.516 3.387 3.386 0 1.87-1.516 3.387-3.387 3.387-1.87 0-3.387-1.516-3.387-3.387z"
                              fill="#000000"
                              data-fill-palette-color="accent"
                            ></path>
                            <path
                              d="M103.087 56.496c0-1.87 1.516-3.387 3.387-3.386 1.87 0 3.387 1.516 3.386 3.386 0 1.87-1.516 3.387-3.386 3.387-1.87 0-3.387-1.516-3.387-3.387z"
                              fill="#000000"
                              data-fill-palette-color="accent"
                            ></path>
                          </g>
                        </svg>
                      </g>
                    </svg>
                  </g>
                  <g></g>
                </svg>
              </g>
              <defs></defs>
            </svg>
            <rect
              width="395.52"
              height="159.78246358559284"
              fill="none"
              stroke="none"
              visibility="hidden"
            ></rect>
          </g>
        </svg>
      </g>
    </svg>