<svg xmlns="http://www.w3.org/2000/svg" xmlns:xlink="http://www.w3.org/1999/xlink" version="1.1" width="1000" height="1000" viewBox="0 0 1000 1000" xml:space="preserve">
<desc>Created with Fabric.js 3.5.0</desc>
<defs>
</defs>
<rect x="0" y="0" width="100%" height="100%" fill="rgba(255,255,255,0)"/>
<g transform="matrix(3.538 0 0 3.538 499.9872 714.676)" id="27620">
<g style="" vector-effect="non-scaling-stroke">
		<g transform="matrix(1.4995 0 0 1.4995 -0.6079 -61.8686)" id="z&#x24;-0">
<path style="stroke: none; stroke-width: 1; stroke-dasharray: none; stroke-linecap: butt; stroke-dashoffset: 0; stroke-linejoin: miter; stroke-miterlimit: 4; is-custom-font: none; font-file-url: none; fill: rgb(92,99,114); fill-rule: evenodd; opacity: 1;" transform=" translate(-50.001, -49.999)" d="M 72.224 90.845 l -1.333 -1.155 l 0.089 -1.599 l 0.533 -4.797 l -0.444 -3.998 v -2.399 l -0.267 -3.376 l -0.444 -2.665 l -1.066 -3.465 c -0.465 -1.102 -1.374 -1.583 -2.932 -1.155 l -3.765 2.025 v 22.703 h -1.018 V 68.519 l -3.578 0.702 c 0.066 0.589 -0.006 1.15 -0.379 1.767 l 1.409 0.986 l 0.986 -0.211 l 0.916 1.409 l -0.282 0.634 l -2.677 0.141 l -4.016 -1.057 l -1.621 -1.973 l 0.846 -1.339 l -6.201 -0.211 l -5.285 7.821 l 0.141 0.846 l 0.634 1.832 l 1.198 1.902 l 1.691 1.762 l 1.057 0.775 l 0.141 0.564 l 1.902 1.973 l 1.268 1.762 l 0.986 1.127 v 0.705 l 1.127 1.057 v 0.634 l -3.875 -0.352 l -0.634 -0.564 l 0.493 -1.339 l -1.902 -1.198 l -0.141 -1.268 l -0.986 -0.775 l -1.902 -1.973 l -0.986 -0.986 l -1.691 -1.762 l -1.832 -0.775 L 36.13 77.47 l 1.198 -3.312 l -0.916 -3.453 l -5.355 2.818 l -1.832 1.268 c -2.339 3.631 -3.182 7.245 -2.626 10.796 l 0.584 2.773 l 0.876 1.362 v 0.876 l 1.751 2.384 v 0.827 l -4.67 0.243 l -0.146 -1.265 l 0.486 -0.584 l -0.973 -0.632 l -0.146 -0.73 l 0.389 -0.389 l 1.022 -0.778 l -1.414 -1.35 c 0.057 -4.721 -0.291 -9.522 -1.531 -14.502 c -0.316 -1.27 -0.746 -2.291 0.696 -3.436 c 1.237 -0.961 2.621 -1.577 4.073 -2.036 c -0.212 -0.636 -0.424 -1.273 -0.636 -1.909 c -3.914 -5.05 -5.373 -11.697 -1.782 -16.291 c -3.946 -3.012 -8.803 -0.65 -7.637 4.837 l 2.164 10.182 c -0.848 8.911 -4.03 10.82 -8.273 9.546 c 2.914 -3.676 2.112 -11.068 0.268 -19.501 c -0.891 -7.351 4.645 -12.273 14.827 -7.575 c 4.327 -4.052 9.258 -4.275 14.603 -1.879 l 3.16 -17.251 l 3.879 -4.344 c -0.51 -1.468 -0.821 -2.849 -0.615 -4.389 c 0.262 -1.392 2.153 -2.194 2.494 -4.013 c 1.363 1.169 2.607 1.461 3.796 1.356 l 1.301 1.627 l -0.434 1.03 l 1.41 1.627 l -0.705 -0.108 v 1.085 c 0 0.56 0.977 0.947 0 1.681 l -1.193 -0.054 v 0.976 c 1.841 -0.084 2.857 1.138 3.308 3.254 l 1.464 0.271 c 0.336 1.066 0.857 0.896 1.247 0.217 l -0.773 8.271 l 0.742 1.822 l 0.202 2.766 h 1.164 V 12.352 c -2.551 1.37 -5.93 1.119 -9.164 -0.329 c -3.129 -1.401 -6.071 -0.032 -8.853 0.922 c 1.437 -1.744 3.481 -3.451 6.64 -3.965 c -2.306 -0.523 -4.611 -0.184 -6.917 1.014 c 2.178 -1.748 3.308 -4.414 9.683 -2.49 c 2.99 1.353 6.298 1.506 8.549 -0.092 l 0.03 -1.466 l 1.077 0.014 l -0.028 34.762 c 2.68 -7.562 6.592 -12.626 12.826 -12.151 l 3.553 -0.178 l 0.622 -2.043 l 0.888 2.31 l 1.51 -3.465 l 0.8 4.619 c 1.363 0.56 1.933 1.541 2.252 2.342 c -0.267 0.089 -0.653 -0.032 -0.919 0.057 l 0.533 0.711 c 1.493 1.21 1.02 1.928 0.267 2.576 c 1.16 2.355 1.771 4.654 2.132 6.929 c 0.385 0.622 0.77 1.244 1.155 1.866 c 0.968 1.724 -1.571 2.559 -2.132 1.066 c -0.148 -0.415 -0.296 -0.829 -0.444 -1.244 c -0.455 -0.821 -1.499 -0.492 -1.155 0.355 c 0.178 0.385 0.355 0.77 0.533 1.155 c 0.49 1.127 -1.938 2.274 -2.697 0.653 c -0.584 -0.819 -0.929 -1.717 -1.034 -2.696 c -1.3 -0.705 -2.805 -1.711 -3.705 -3.376 c -0.581 2.349 -1.124 4.536 -2.424 6.485 c 0.676 1.155 0.237 2.31 0.355 3.465 c 1.976 4.028 2.458 7.416 2.399 10.571 c 1.51 0.385 3.02 0.77 4.531 1.155 c 0.563 0 1.125 0 1.688 0 c 1.007 -0.254 2.014 -0.145 3.086 0.394 c 0.858 0.93 0.726 1.751 1.089 2.626 c 0.089 1.244 0.178 2.487 0.267 3.731 l -0.888 1.333 l -0.888 2.221 l -0.444 1.599 l -1.244 2.487 l -0.089 3.82 l -0.977 0.089 l -2.576 -3.376 l 1.777 -1.155 l -0.622 -1.333 l 2.938 -4.531 l 0.171 -1.599 c -0.365 -0.993 -0.934 -1.679 -1.954 -1.688 h -1.777 l -5.064 0.8 l -1.954 7.729 l -0.089 4.531 l -0.444 1.155 v 1.421 l -0.711 2.754 L 74 87.025 l 0.622 2.31 l -0.355 0.355 l 2.221 3.287 l -0.267 0.888 l -3.376 -0.089 l -1.066 -1.421 L 72.224 90.845 L 72.224 90.845 z" stroke-linecap="round"/>
</g>
		<g transform="matrix(2.525 0 0 2.525 -121.5761 -109.2012)" id="tight-bounds">
<path style="stroke: none; stroke-width: 1; stroke-dasharray: none; stroke-linecap: butt; stroke-dashoffset: 0; stroke-linejoin: miter; stroke-miterlimit: 4; is-custom-font: none; font-file-url: none; fill: rgb(92,99,114); fill-rule: nonzero; opacity: 1;" transform=" translate(-7.5895, -36.752)" d="M 8.855 42.944 l -6.308 -2.4 l -0.359 -2.059 l 1.136 -2.986 l 1.633 0.621 l -1.065 2.799 l 4.964 1.889 l 1.044 -2.743 l 1.689 0.642 l -1.115 2.93 z M 10.955 32.314 l -0.713 1.875 l 0.989 0.377 l -1.04 2.734 l 1.689 0.642 l 1.111 -2.92 l -0.337 -2.062 z M 7.275 33.06 l 0.713 -1.875 l -1.642 -0.625 l -1.641 1.309 l -1.136 2.986 l 1.633 0.621 l 1.065 -2.799 z" stroke-linecap="round"/>
</g>
		<g transform="matrix(2.525 0 0 2.525 -101.3232 -142.2787)" id="tight-bounds">
<path style="stroke: none; stroke-width: 1; stroke-dasharray: none; stroke-linecap: butt; stroke-dashoffset: 0; stroke-linejoin: miter; stroke-miterlimit: 4; is-custom-font: none; font-file-url: none; fill: rgb(92,99,114); fill-rule: nonzero; opacity: 1;" transform=" translate(-15.6105, -23.652)" d="M 8.851 24.797 v 0 l 3.033 -3.902 l 1.434 1.115 l -1.838 2.365 l 1.379 1.072 l 1.839 -2.364 l 1.418 1.103 l -1.838 2.364 l 2.766 2.151 l -1.194 1.537 z M 22.37 21.852 v 0 l -2.901 -2.255 l -1.48 0.683 l 0.337 -1.572 l -2.112 -1.642 l -1.959 0.779 l -1.948 2.506 l 1.434 1.116 l 1.875 -2.412 l 1.38 1.072 l -1.876 2.412 l 1.419 1.103 l 1.875 -2.412 l 2.767 2.151 z" stroke-linecap="round"/>
</g>
		<g transform="matrix(2.525 0 0 2.525 -75.3195 -168.6359)" id="tight-bounds">
<path style="stroke: none; stroke-width: 1; stroke-dasharray: none; stroke-linecap: butt; stroke-dashoffset: 0; stroke-linejoin: miter; stroke-miterlimit: 4; is-custom-font: none; font-file-url: none; fill: rgb(92,99,114); fill-rule: nonzero; opacity: 1;" transform=" translate(-25.909, -13.2135)" d="M 19.315 13.154 v 0 l 1.57 -1.134 l 4.132 5.723 l 2.428 -1.754 l 1.058 1.465 l -2.573 1.859 l -2.039 0.179 z M 27.927 6.935 v 0 l -1.579 1.14 l 4.133 5.722 l -2.429 1.754 l 1.058 1.465 l 2.59 -1.871 l 0.803 -1.872 z" stroke-linecap="round"/>
</g>
		<g transform="matrix(2.525 0 0 2.525 -40.1651 -184.349)" id="tight-bounds">
<path style="stroke: none; stroke-width: 1; stroke-dasharray: none; stroke-linecap: butt; stroke-dashoffset: 0; stroke-linejoin: miter; stroke-miterlimit: 4; is-custom-font: none; font-file-url: none; fill: rgb(92,99,114); fill-rule: nonzero; opacity: 1;" transform=" translate(-39.8315, -6.9905)" d="M 34.763 8.59 l -1.048 -3.071 l 1.319 -1.578 l 3.004 -1.025 l 0.587 1.72 l -2.882 0.983 l 0.564 1.653 l 2.882 -0.983 l 0.58 1.701 l -3.005 1.025 z M 45.948 8.477 l -1.031 -3.023 l -2.062 -0.415 l -3.005 1.025 l 0.581 1.7 l 2.891 -0.986 l 0.567 1.663 l -2.834 0.967 l 0.564 1.654 l 2.948 -1.006 z M 35.327 10.244 l 1.843 -0.629 l 0.341 1.002 l 2.825 -0.964 l 0.565 1.654 l -2.958 1.009 l -2.049 -0.409 z M 42.516 4.416 l 1.833 -0.625 l -0.58 -1.701 l -2.064 -0.425 l -3.005 1.025 l 0.586 1.72 l 2.892 -0.986 z" stroke-linecap="round"/>
</g>
		<g transform="matrix(2.525 0 0 2.525 -2.3457 -190.3964)" id="tight-bounds">
<path style="stroke: none; stroke-width: 1; stroke-dasharray: none; stroke-linecap: butt; stroke-dashoffset: 0; stroke-linejoin: miter; stroke-miterlimit: 4; is-custom-font: none; font-file-url: none; fill: rgb(92,99,114); fill-rule: nonzero; opacity: 1;" transform=" translate(-54.8095, -4.5955)" d="M 49.355 1.4 v 0 l 1.715 -1.134 l 3.173 -0.12 l 0.066 1.746 l -2.993 0.113 l 0.068 1.816 l 2.993 -0.114 l 0.067 1.756 l -2.993 0.113 l 0.134 3.542 l -1.936 0.073 z M 59.97 0.999 v 0 l -1.866 -0.999 l -3.173 0.12 l 0.066 1.746 l 3.053 -0.116 l 0.069 1.816 l -3.053 0.115 l 0.066 1.756 l 3.053 -0.115 l 0.134 3.542 l 1.945 -0.074 z" stroke-linecap="round"/>
</g>
		<g transform="matrix(2.525 0 0 2.525 36.2931 -185.6607)" id="tight-bounds">
<path style="stroke: none; stroke-width: 1; stroke-dasharray: none; stroke-linecap: butt; stroke-dashoffset: 0; stroke-linejoin: miter; stroke-miterlimit: 4; is-custom-font: none; font-file-url: none; fill: rgb(92,99,114); fill-rule: nonzero; opacity: 1;" transform=" translate(-70.112, -6.471)" d="M 63.979 9.618 l 2.271 -8.57 l 4.777 1.266 l -0.447 1.689 l -2.895 -0.767 l -1.361 5.134 l 2.895 0.767 l -0.463 1.747 z M 74.516 11.326 l 1.729 -6.524 l -1.406 -1.477 l -3.088 -0.819 l -0.448 1.689 l 2.896 0.767 l -1.361 5.134 l -2.895 -0.767 l -0.463 1.747 l 3.088 0.818 z" stroke-linecap="round"/>
</g>
		<g transform="matrix(2.525 0 0 2.525 72.3161 -168.2812)" id="tight-bounds">
<path style="stroke: none; stroke-width: 1; stroke-dasharray: none; stroke-linecap: butt; stroke-dashoffset: 0; stroke-linejoin: miter; stroke-miterlimit: 4; is-custom-font: none; font-file-url: none; fill: rgb(92,99,114); fill-rule: nonzero; opacity: 1;" transform=" translate(-84.3785, -13.354)" d="M 82.246 6.773 v 0 l 4.182 2.633 l -0.968 1.538 l -2.535 -1.596 l -0.931 1.478 l 2.535 1.596 l -0.937 1.487 l -2.534 -1.596 l -0.958 1.521 l 2.476 1.559 l -0.931 1.478 l -4.123 -2.596 z M 83.268 15.829 v 0 l -0.931 1.478 l 4.174 2.628 l 0.931 -1.478 z M 90.267 13.971 v 0 l 0.968 -1.538 l -4.224 -2.66 l -0.969 1.538 z M 86.287 15.606 v 0 l 0.937 -1.487 l -2.113 -1.33 l -0.936 1.487 z" stroke-linecap="round"/>
</g>
		<g transform="matrix(2.525 0 0 2.525 99.0873 -143.1158)" id="tight-bounds">
<path style="stroke: none; stroke-width: 1; stroke-dasharray: none; stroke-linecap: butt; stroke-dashoffset: 0; stroke-linejoin: miter; stroke-miterlimit: 4; is-custom-font: none; font-file-url: none; fill: rgb(92,99,114); fill-rule: nonzero; opacity: 1;" transform=" translate(-94.981, -23.3205)" d="M 95.208 16.405 v 0 l 3.261 3.713 l -1.365 1.199 l -1.977 -2.25 l -1.312 1.153 l 1.976 2.25 l -1.35 1.186 l -1.976 -2.25 l -2.633 2.312 l -1.285 -1.462 z M 95.557 30.236 v 0 l 2.761 -2.424 l -0.393 -1.582 l 1.48 0.626 l 2.01 -1.765 l -0.396 -2.07 l -2.095 -2.386 l -1.365 1.199 l 2.016 2.296 l -1.313 1.153 l -2.016 -2.296 l -1.35 1.186 l 2.016 2.296 l -2.633 2.312 z" stroke-linecap="round"/>
</g>
		<g transform="matrix(2.525 0 0 2.525 119.733 -110.6897)" id="tight-bounds">
<path style="stroke: none; stroke-width: 1; stroke-dasharray: none; stroke-linecap: butt; stroke-dashoffset: 0; stroke-linejoin: miter; stroke-miterlimit: 4; is-custom-font: none; font-file-url: none; fill: rgb(92,99,114); fill-rule: nonzero; opacity: 1;" transform=" translate(-103.1575, -36.1625)" d="M 101.098 31.262 l 2.962 -1.326 l 1.693 1.167 l 1.297 2.898 l -1.658 0.742 l -1.244 -2.779 l -1.595 0.714 l 1.244 2.779 l -1.64 0.735 l -1.297 -2.898 z M 102.242 42.389 l 2.915 -1.305 l 0.224 -2.091 l -1.298 -2.898 l -1.64 0.735 l 1.248 2.788 l -1.603 0.718 l -1.224 -2.734 l -1.595 0.714 l 1.273 2.843 z M 99.504 31.976 l 0.795 1.777 l -0.965 0.432 l 1.22 2.725 l -1.595 0.714 l -1.277 -2.852 l 0.218 -2.078 z M 105.969 38.598 l 0.792 1.767 l 1.64 -0.734 l 0.232 -2.095 l -1.297 -2.897 l -1.658 0.742 l 1.248 2.788 z" stroke-linecap="round"/>
</g>
		<g transform="matrix(2.525 0 0 2.525 -116.7004 -11.3297)" id="tight-bounds">
<path style="stroke: none; stroke-width: 1; stroke-dasharray: none; stroke-linecap: butt; stroke-dashoffset: 0; stroke-linejoin: miter; stroke-miterlimit: 4; is-custom-font: none; font-file-url: none; fill: rgb(92,99,114); fill-rule: nonzero; opacity: 1;" transform=" translate(-9.5205, -75.513)" d="M 4.46 71.721 l 6.307 -2.4 l 1.638 1.3 l 1.136 2.985 l -1.633 0.622 l -1.065 -2.8 l -4.964 1.889 l 1.044 2.743 l -1.689 0.643 l -1.115 -2.93 z M 9.957 81.059 l -0.714 -1.876 l -0.989 0.377 l -1.04 -2.734 l -1.689 0.642 l 1.111 2.921 l 1.622 1.316 z M 12.21 78.054 l 0.714 1.876 l 1.642 -0.625 l 0.356 -2.069 l -1.136 -2.986 l -1.633 0.622 l 1.065 2.799 z" stroke-linecap="round"/>
</g>
		<g transform="matrix(2.525 0 0 2.525 -98.2704 21.21)" id="tight-bounds">
<path style="stroke: none; stroke-width: 1; stroke-dasharray: none; stroke-linecap: butt; stroke-dashoffset: 0; stroke-linejoin: miter; stroke-miterlimit: 4; is-custom-font: none; font-file-url: none; fill: rgb(92,99,114); fill-rule: nonzero; opacity: 1;" transform=" translate(-16.8195, -88.4)" d="M 17.481 81.486 v 0 l 3.033 3.902 l -1.435 1.115 l -1.838 -2.365 l -1.379 1.073 l 1.838 2.364 l -1.419 1.103 l -1.838 -2.364 l -2.766 2.151 l -1.195 -1.537 z M 17.002 95.314 v 0 l 2.9 -2.255 l -0.297 -1.603 l 1.44 0.714 l 2.112 -1.642 l -0.272 -2.09 l -1.948 -2.506 l -1.435 1.115 l 1.875 2.412 l -1.379 1.072 l -1.875 -2.412 l -1.419 1.103 l 1.875 2.412 l -2.766 2.151 z" stroke-linecap="round"/>
</g>
		<g transform="matrix(2.525 0 0 2.525 -70.7163 43.5663)" id="tight-bounds">
<path style="stroke: none; stroke-width: 1; stroke-dasharray: none; stroke-linecap: butt; stroke-dashoffset: 0; stroke-linejoin: miter; stroke-miterlimit: 4; is-custom-font: none; font-file-url: none; fill: rgb(92,99,114); fill-rule: nonzero; opacity: 1;" transform=" translate(-27.732, -97.254)" d="M 25.715 90.976 v 0 l 1.57 1.134 l -4.133 5.722 l 2.429 1.754 l -1.058 1.465 l -2.574 -1.859 l -0.811 -1.879 z M 34.326 97.195 v 0 l -1.578 -1.14 l -4.132 5.723 l -2.428 -1.754 l -1.058 1.465 l 2.59 1.87 l 2.03 0.173 z" stroke-linecap="round"/>
</g>
		<g transform="matrix(2.525 0 0 2.525 -38.4973 60.6972)" id="tight-bounds">
<path style="stroke: none; stroke-width: 1; stroke-dasharray: none; stroke-linecap: butt; stroke-dashoffset: 0; stroke-linejoin: miter; stroke-miterlimit: 4; is-custom-font: none; font-file-url: none; fill: rgb(92,99,114); fill-rule: nonzero; opacity: 1;" transform=" translate(-40.492, -104.0385)" d="M 35.507 102.22 l 1.048 -3.071 l 2.008 -0.444 l 3.004 1.025 l -0.586 1.72 l -2.882 -0.983 l -0.564 1.654 l 2.882 0.983 l -0.58 1.7 l -3.005 -1.024 z M 44.43 108.966 l 1.031 -3.024 l -1.378 -1.588 l -3.005 -1.025 l -0.58 1.701 l 2.891 0.986 l -0.567 1.663 l -2.835 -0.967 l -0.564 1.654 l 2.949 1.006 z M 34.943 103.874 l 1.843 0.628 l -0.342 1.002 l 2.825 0.963 l -0.564 1.654 l -2.957 -1.009 l -1.372 -1.575 z M 44.195 103.654 l 1.833 0.625 l 0.58 -1.7 l -1.374 -1.598 l -3.005 -1.025 l -0.587 1.72 l 2.892 0.986 z" stroke-linecap="round"/>
</g>
		<g transform="matrix(2.525 0 0 2.525 -2.2509 66.66)" id="tight-bounds">
<path style="stroke: none; stroke-width: 1; stroke-dasharray: none; stroke-linecap: butt; stroke-dashoffset: 0; stroke-linejoin: miter; stroke-miterlimit: 4; is-custom-font: none; font-file-url: none; fill: rgb(92,99,114); fill-rule: nonzero; opacity: 1;" transform=" translate(-54.847, -106.4)" d="M 49.687 102.804 v 0 l 1.796 -1.001 l 3.172 0.12 l -0.066 1.746 l -2.993 -0.113 l -0.068 1.815 l 2.993 0.114 l -0.067 1.755 l -2.993 -0.113 l -0.133 3.542 l -1.936 -0.073 z M 60.302 103.205 v 0 l -1.786 -1.136 l -3.172 -0.12 l -0.066 1.746 l 3.053 0.115 l -0.069 1.816 l -3.053 -0.115 l -0.066 1.755 l 3.053 0.116 l -0.134 3.541 l 1.945 0.074 z" stroke-linecap="round"/>
</g>
		<g transform="matrix(2.525 0 0 2.525 34.9625 61.9231)" id="tight-bounds">
<path style="stroke: none; stroke-width: 1; stroke-dasharray: none; stroke-linecap: butt; stroke-dashoffset: 0; stroke-linejoin: miter; stroke-miterlimit: 4; is-custom-font: none; font-file-url: none; fill: rgb(92,99,114); fill-rule: nonzero; opacity: 1;" transform=" translate(-69.585, -104.524)" d="M 65.721 109.947 l -2.271 -8.57 l 4.777 -1.266 l 0.447 1.689 l -2.895 0.767 l 1.361 5.134 l 2.895 -0.767 l 0.463 1.747 z M 75.72 106.213 l -1.729 -6.524 l -1.952 -0.588 l -3.089 0.819 l 0.448 1.688 l 2.895 -0.767 l 1.361 5.134 l -2.895 0.767 l 0.462 1.747 l 3.089 -0.818 z" stroke-linecap="round"/>
</g>
		<g transform="matrix(2.525 0 0 2.525 69.5361 45.1722)" id="tight-bounds">
<path style="stroke: none; stroke-width: 1; stroke-dasharray: none; stroke-linecap: butt; stroke-dashoffset: 0; stroke-linejoin: miter; stroke-miterlimit: 4; is-custom-font: none; font-file-url: none; fill: rgb(92,99,114); fill-rule: nonzero; opacity: 1;" transform=" translate(-83.2775, -97.89)" d="M 76.421 96.969 v 0 l 4.182 -2.633 l 0.968 1.538 l -2.535 1.595 l 0.931 1.479 l 2.535 -1.596 l 0.936 1.487 l -2.534 1.596 l 0.957 1.521 l 2.475 -1.559 l 0.931 1.478 l -4.122 2.596 z M 85.029 99.961 v 0 l 0.931 1.478 l 4.174 -2.628 l -0.931 -1.478 z M 86.378 92.847 v 0 l -0.968 -1.538 l -4.224 2.66 l 0.968 1.537 z M 86.133 97.142 v 0 l -0.936 -1.487 l -2.112 1.33 l 0.936 1.487 z" stroke-linecap="round"/>
</g>
		<g transform="matrix(2.525 0 0 2.525 96.1811 21.869)" id="tight-bounds">
<path style="stroke: none; stroke-width: 1; stroke-dasharray: none; stroke-linecap: butt; stroke-dashoffset: 0; stroke-linejoin: miter; stroke-miterlimit: 4; is-custom-font: none; font-file-url: none; fill: rgb(92,99,114); fill-rule: nonzero; opacity: 1;" transform=" translate(-93.83, -88.661)" d="M 86.994 89.374 v 0 l 3.262 -3.713 l 1.365 1.199 l -1.977 2.25 l 1.313 1.153 l 1.977 -2.25 l 1.35 1.186 l -1.977 2.25 l 2.633 2.313 l -1.285 1.462 z M 100.666 87.244 v 0 l -2.761 -2.425 l -1.518 0.593 l 0.431 -1.548 l -2.011 -1.766 l -2.001 0.66 l -2.095 2.385 l 1.365 1.199 l 2.016 -2.295 l 1.312 1.153 l -2.016 2.295 l 1.35 1.186 l 2.017 -2.295 l 2.632 2.313 z" stroke-linecap="round"/>
</g>
		<g transform="matrix(2.525 0 0 2.525 114.947 -10.1151)" id="tight-bounds">
<path style="stroke: none; stroke-width: 1; stroke-dasharray: none; stroke-linecap: butt; stroke-dashoffset: 0; stroke-linejoin: miter; stroke-miterlimit: 4; is-custom-font: none; font-file-url: none; fill: rgb(92,99,114); fill-rule: nonzero; opacity: 1;" transform=" translate(-101.262, -75.994)" d="M 98.994 80.788 l -2.961 -1.326 l -0.257 -2.04 l 1.297 -2.897 l 1.659 0.742 l -1.245 2.779 l 1.595 0.714 l 1.244 -2.779 l 1.64 0.735 l -1.297 2.897 z M 106.533 72.526 l -2.915 -1.306 l -1.709 1.226 l -1.297 2.897 l 1.64 0.735 l 1.248 -2.788 l 1.604 0.718 l -1.224 2.733 l 1.595 0.714 l 1.273 -2.843 z M 100.588 81.502 l 0.796 -1.776 l 0.966 0.432 l 1.22 -2.724 l 1.594 0.714 l -1.277 2.852 l -1.695 1.221 z M 101.222 72.27 l 0.792 -1.768 l -1.64 -0.735 l -1.718 1.222 l -1.297 2.898 l 1.658 0.742 l 1.249 -2.788 z" stroke-linecap="round"/>
</g>
		<g transform="matrix(2.525 0 0 2.525 -129.319 -59.3464)" id="tight-bounds">
<path style="stroke: none; stroke-width: 1; stroke-dasharray: none; stroke-linecap: butt; stroke-dashoffset: 0; stroke-linejoin: miter; stroke-miterlimit: 4; is-custom-font: none; font-file-url: none; fill: rgb(92,99,114); fill-rule: nonzero; opacity: 1;" transform=" translate(-4.523, -56.4965)" d="M 1.136 56.496 c 0 -1.87 1.516 -3.387 3.387 -3.386 c 1.87 0 3.387 1.516 3.387 3.386 c 0 1.87 -1.516 3.387 -3.387 3.387 c -1.87 0 -3.387 -1.516 -3.387 -3.387 z" stroke-linecap="round"/>
</g>
		<g transform="matrix(2.525 0 0 2.525 128.1059 -59.3464)" id="tight-bounds">
<path style="stroke: none; stroke-width: 1; stroke-dasharray: none; stroke-linecap: butt; stroke-dashoffset: 0; stroke-linejoin: miter; stroke-miterlimit: 4; is-custom-font: none; font-file-url: none; fill: rgb(92,99,114); fill-rule: nonzero; opacity: 1;" transform=" translate(-106.4735, -56.4965)" d="M 103.087 56.496 c 0 -1.87 1.516 -3.387 3.387 -3.386 c 1.87 0 3.387 1.516 3.386 3.386 c 0 1.87 -1.516 3.387 -3.386 3.387 c -1.87 0 -3.387 -1.516 -3.387 -3.387 z" stroke-linecap="round"/>
</g>
		<g transform="matrix(2.525 0 0 2.525 -0.6061 -0.2746)" id="tight-bounds">
<rect style="stroke: none; stroke-width: 1; stroke-dasharray: none; stroke-linecap: butt; stroke-dashoffset: 0; stroke-linejoin: miter; stroke-miterlimit: 4; is-custom-font: none; font-file-url: none; fill: none; fill-rule: nonzero; opacity: 1;" x="-197.76" y="-79.89125" rx="0" ry="0" width="395.52" height="159.7825"/>
</g>
</g>
</g>
</svg>